<?xml version="1.0" encoding="utf-8"?>
<!-- Generator: Adobe Illustrator 24.1.3, SVG Export Plug-In . SVG Version: 6.00 Build 0)  -->
<svg version="1.1" id="Слой_1" xmlns="http://www.w3.org/2000/svg" xmlns:xlink="http://www.w3.org/1999/xlink" x="0px" y="0px"
	 viewBox="0 0 595.28 254.25" style="enable-background:new 0 0 595.28 254.25;" xml:space="preserve">
<style type="text/css">
	.st0{fill:#0074BB;}
	.st1{fill:#FFFFFF;}
	.st2{fill:#AECAEC;}
	.st3{clip-path:url(#SVGID_2_);fill:#AECAEC;}
</style>
<g>
	<path class="st0" d="M550.69,130.85c0-0.57-0.33-0.67-0.76-0.67h-8.55c-0.62,0-0.86,0.33-1,0.67l-3.53,8.93
		c-1.48,3.73-2.2,5.06-3.77,9.27h-0.29c0.05-0.38,0.43-6.07,0.43-8.88v-9.41c0-0.38-0.19-0.57-0.57-0.57h-7.35
		c-0.53,0-0.76,0.14-0.76,0.72v31.47c0,0.38,0.19,0.57,0.57,0.57h8.21c0.57,0,0.81-0.48,0.96-0.76l4.2-10.08
		c2.44-5.87,3.2-8.07,3.72-9.79h0.24c-0.14,1.62-0.43,5.64-0.43,7.97v11.94c0,0.57,0.24,0.72,0.76,0.72h7.21
		c0.38,0,0.72-0.05,0.72-0.57V130.85z M501.98,149.52h1.62c1.86,0,2.96,1,3.25,2.82l0.76,4.92c0.91,5.92,5.92,6.5,9.12,6.5
		c0.86,0,0.96-0.33,1.1-0.72l1.72-5.4c0.05-0.1,0.05-0.14,0.05-0.24c0-0.43-0.43-0.57-0.72-0.67l-0.96-0.24
		c-0.95-0.29-1.91-0.43-2.39-2.82l-0.53-2.72c-0.43-2.29-1.82-4.25-4.39-5.06v-0.14c2.44-0.72,3.44-2.67,3.77-4.15l0.53-2.39
		c0.33-1.82,1.05-2.63,2.2-2.91l1.24-0.33c0.14-0.05,0.53-0.19,0.53-0.62c0-0.1,0-0.19-0.05-0.29l-1.48-5.06
		c-0.14-0.43-0.48-0.62-1.24-0.62c-3.39,0-7.74,1.91-8.64,6.83l-0.53,2.82c-0.38,2.34-1.34,3.58-3.44,3.58h-1.53v-11.84
		c0-0.38-0.19-0.57-0.57-0.57h-7.93c-0.53,0-0.76,0.14-0.76,0.72v31.23c0,0.48,0.05,0.81,0.76,0.81h7.97c0.24,0,0.53-0.14,0.53-0.57
		V149.52z M485.17,130.85c0-0.57-0.33-0.67-0.76-0.67h-8.55c-0.62,0-0.86,0.33-1,0.67l-3.53,8.93c-1.48,3.73-2.2,5.06-3.77,9.27
		h-0.29c0.05-0.38,0.43-6.07,0.43-8.88v-9.41c0-0.38-0.19-0.57-0.57-0.57h-7.35c-0.53,0-0.76,0.14-0.76,0.72v31.47
		c0,0.38,0.19,0.57,0.57,0.57h8.21c0.57,0,0.81-0.48,0.95-0.76l4.2-10.08c2.44-5.87,3.2-8.07,3.72-9.79h0.24
		c-0.14,1.62-0.43,5.64-0.43,7.97v11.94c0,0.57,0.24,0.72,0.76,0.72h7.21c0.38,0,0.72-0.05,0.72-0.57V130.85z M454.41,131.33
		c0.05-0.24,0.05-0.43,0.05-0.57c0-0.43-0.19-0.57-0.91-0.57h-22.45c-0.91,0-1,0.14-1,0.96v5.97c0,0.91,0.1,1,1,1h6.16v23.83
		c0,0.91,0.1,1,1,1h7.31c0.91,0,0.96-0.1,0.96-1v-23.83h5.78c0.72,0,0.86-0.14,1-0.81L454.41,131.33z M409.57,149.52h1.62
		c1.86,0,2.96,1,3.25,2.82l0.76,4.92c0.91,5.92,5.92,6.5,9.12,6.5c0.86,0,0.95-0.33,1.1-0.72l1.72-5.4c0.05-0.1,0.05-0.14,0.05-0.24
		c0-0.43-0.43-0.57-0.72-0.67l-0.95-0.24c-0.95-0.29-1.91-0.43-2.39-2.82l-0.53-2.72c-0.43-2.29-1.81-4.25-4.39-5.06v-0.14
		c2.44-0.72,3.44-2.67,3.77-4.15l0.53-2.39c0.33-1.82,1.05-2.63,2.2-2.91l1.24-0.33c0.14-0.05,0.53-0.19,0.53-0.62
		c0-0.1,0-0.19-0.05-0.29l-1.48-5.06c-0.14-0.43-0.48-0.62-1.24-0.62c-3.39,0-7.74,1.91-8.64,6.83l-0.53,2.82
		c-0.38,2.34-1.34,3.58-3.44,3.58h-1.53v-11.84c0-0.38-0.19-0.57-0.57-0.57h-7.93c-0.53,0-0.76,0.14-0.76,0.72v31.23
		c0,0.48,0.05,0.81,0.76,0.81h7.98c0.24,0,0.53-0.14,0.53-0.57V149.52z M386.51,140.11c0,2.63-0.95,3.63-3.92,3.63h-1.1v-6.88h1.34
		C385.22,136.87,386.51,137.63,386.51,140.11 M394.86,139.64c0-2.82-1.15-5.59-3.01-7.21c-2.01-1.72-4.63-2.24-9.27-2.24h-9.41
		c-0.91,0-1,0.05-1,0.96v30.8c0,0.91,0.1,1,1,1h7.31c0.81,0,1-0.1,1-1v-11.22h1.48C390.14,150.72,394.86,146.27,394.86,139.64
		 M353.51,148.85h-3.87l1.24-5.59c0.29-1.39,0.62-3.92,0.81-5.44c0.19,1.43,0.62,4.11,0.86,5.44L353.51,148.85z M366.64,161.79
		l-10.03-30.8c-0.29-0.76-0.33-0.81-1.1-0.81h-7.12c-0.81,0-0.86,0.1-1.05,0.81l-9.98,30.8c-0.1,0.24-0.19,0.48-0.19,0.67
		c0,0.29,0.24,0.48,1,0.48h7.45c0.76,0,0.76-0.05,1-0.81l1.96-6.83h6.26l1.81,6.83c0.19,0.76,0.24,0.81,1.05,0.81h8.07
		c0.72,0,0.95-0.14,0.95-0.57C366.74,162.22,366.69,162.03,366.64,161.79 M223.28,161.94v-30.8c0-0.81-0.1-0.96-1-0.96h-7.31
		c-0.91,0-0.95,0.14-0.95,0.96v11.27h-6.21v-11.27c0-0.81-0.19-0.96-1-0.96h-7.31c-0.91,0-0.95,0.14-0.95,0.96v30.8
		c0,0.91,0.05,1,0.95,1h7.31c0.81,0,1-0.1,1-1v-11.99h6.21v11.99c0,0.91,0.05,1,0.95,1h7.31
		C223.19,162.94,223.28,162.85,223.28,161.94 M191,130.85c0-0.57-0.33-0.67-0.76-0.67h-8.55c-0.62,0-0.86,0.33-1,0.67l-3.53,8.93
		c-1.48,3.73-2.2,5.06-3.77,9.27h-0.29c0.05-0.38,0.43-6.07,0.43-8.88v-9.41c0-0.38-0.19-0.57-0.57-0.57h-7.35
		c-0.53,0-0.76,0.14-0.76,0.72v31.47c0,0.38,0.19,0.57,0.57,0.57h8.21c0.57,0,0.81-0.48,0.95-0.76l4.2-10.08
		c2.44-5.87,3.2-8.07,3.72-9.79h0.24c-0.14,1.62-0.43,5.64-0.43,7.97v11.94c0,0.57,0.24,0.72,0.76,0.72h7.21
		c0.38,0,0.72-0.05,0.72-0.57V130.85z M148.02,143.7h-2.39c-1.19,0-3.34-0.29-3.34-3.44c0-3.25,2.15-3.39,3.44-3.39h2.29V143.7z
		 M145.01,130.18c-3.87,0-11.51,0.81-11.51,9.22c0,2.67,1.1,6.3,5.59,7.55v0.1c-2.44,0.95-3.49,3.2-3.87,4.82l-0.62,2.44
		c-0.29,1.05-0.43,2.01-2.53,2.53l-0.62,0.14c-0.43,0.1-0.72,0.43-0.72,0.81c0,0.1,0,0.24,0.05,0.33l1.58,4.92
		c0.14,0.48,0.24,0.72,1.34,0.72c2.01,0,5.25-0.53,7.02-2.44c1.34-1.39,1.67-3.01,1.96-4.58l0.67-3.44
		c0.33-1.81,1.19-2.91,3.39-2.91h1.29v11.56c0,0.91,0.19,1,0.62,1h7.69c0.86,0,0.95-0.19,0.95-0.57v-31.23
		c0-0.48-0.05-0.96-0.95-0.96H145.01z M111.11,148.42c0,0.62,0.33,0.96,0.95,0.96h2.05c2.48,0,4.54,0.95,4.54,3.72
		c0,2.82-2.29,3.72-4.06,3.72c-3.63,0-4.39-1.34-5.83-2.24c-0.14-0.1-0.38-0.24-0.62-0.24c-0.19,0-0.38,0.1-0.48,0.33l-2.01,4.54
		c-0.1,0.19-0.1,0.33-0.1,0.48c0,1.29,2.58,2.53,4.06,3.06c2.53,0.91,5.25,1,6.59,1c3.34,0,11.22-0.72,11.22-9.93
		c0-2.2-0.38-6.35-5.78-8.21c3.63-1.19,4.73-4.92,4.73-7.31c0-7.78-7.31-8.93-10.51-8.93c-3.15,0-6.97,0.72-9.41,3.15
		c-0.33,0.33-0.48,0.62-0.48,0.95c0,0.14,0.05,0.33,0.14,0.53l2.15,4.2c0.05,0.14,0.19,0.24,0.43,0.24c0.81,0,1.62-0.91,2.48-1.39
		c1.05-0.57,2.05-0.76,2.82-0.76c3.01,0,3.58,2.2,3.58,3.44c0,2.72-2.44,3.34-4.54,3.34h-1c-0.62,0-0.95,0.33-0.95,0.95V148.42z
		 M89.38,136.25c0.72,0,1.29,0.33,1.77,0.81c0.57,0.57,2.1,2.53,2.1,9.5c0,3.2-0.33,10.32-3.87,10.32c-0.72,0-1.24-0.24-1.77-0.81
		c-0.81-0.91-2.1-3.1-2.1-9.5C85.51,142.88,85.99,136.25,89.38,136.25 M89.38,129.37c-2.96,0-6.5,0.67-9.27,3.68
		c-3.68,3.96-3.96,10.17-3.96,13.51c0,3.34,0.29,9.55,3.96,13.51c2.77,3.01,6.3,3.68,9.27,3.68c2.96,0,6.49-0.67,9.26-3.68
		c3.68-3.96,3.96-10.17,3.96-13.51c0-3.34-0.29-9.55-3.96-13.51C95.87,130.04,92.34,129.37,89.38,129.37 M73.62,161.6l-9.17-15.9
		L72,132.28c0.19-0.33,0.29-0.57,0.29-0.76c0-0.24-0.19-0.43-0.81-0.53l-7.59-1.39c-0.24-0.05-0.43-0.1-0.57-0.1
		c-0.29,0-0.43,0.14-0.67,0.67l-2.63,6.4c-0.29,0.72-0.53,1.48-0.81,2.44c-0.24-0.91-0.62-1.72-0.95-2.44l-2.87-6.3
		c-0.24-0.53-0.33-0.67-0.57-0.67c-0.14,0-0.38,0.05-0.67,0.1l-7.64,1.29c-0.62,0.1-0.86,0.33-0.86,0.62c0,0.19,0.1,0.43,0.29,0.72
		l8.07,13.28l-9.12,15.76c-0.19,0.33-0.29,0.62-0.29,0.81c0,0.29,0.24,0.48,0.81,0.53l7.74,0.86c0.29,0.05,0.53,0.1,0.67,0.1
		c0.24,0,0.38-0.14,0.57-0.62l4.01-8.02c0.33-0.62,0.62-1.34,0.86-2.39c0.33,1,0.53,1.72,0.81,2.34l3.96,8.12
		c0.24,0.48,0.43,0.57,0.67,0.57c0.14,0,0.29-0.05,0.53-0.05l7.88-0.72c0.62-0.05,0.86-0.24,0.86-0.53
		C73.96,162.18,73.81,161.94,73.62,161.6"/>
	<polygon class="st1" points="206.82,211.15 202.79,207.1 206.82,204.74 219.72,193.63 252.2,192.45 252.2,190.26 254.89,188.74 
		293.19,188.74 287.59,190.6 289.38,193.3 298.34,194.98 361.81,203.57 362.93,204.91 348.6,205.92 349.72,208.12 334.26,211.15 
		351.06,214.35 349.27,216.71 334.49,219.07 294.62,217.56 261.47,219.07 244.22,216.71 254.75,213.34 241.09,212.5 219.81,212.67 	
		"/>
	<polygon class="st2" points="348.6,205.99 349.72,208.18 334.26,211.22 351.06,214.42 349.27,216.78 334.49,219.14 294.62,217.62 
		261.47,219.14 244.22,216.78 254.75,213.41 241.09,212.57 219.81,212.73 206.82,211.22 202.79,207.17 202.79,221.33 206.82,225.38 
		219.81,226.9 241.09,226.73 244.39,226.93 244.22,230.94 261.47,233.3 294.62,231.78 334.49,233.3 349.27,230.94 351.06,228.58 
		350.83,219.99 362.93,219.14 362.93,204.98 	"/>
	<polygon class="st0" points="240.48,212.57 240.48,226.73 241.09,226.72 244.39,226.93 244.22,230.94 261.42,233.29 261.42,219.13 
		244.22,216.78 254.75,213.41 241.09,212.57 	"/>
	<polygon class="st0" points="348.6,205.99 349.72,208.18 334.26,211.22 351.06,214.42 349.27,216.78 334.49,219.14 333.69,219.11 
		333.69,233.27 334.49,233.3 349.27,230.94 351.06,228.58 350.83,219.99 362.93,219.14 362.93,204.98 	"/>
	<polygon class="st0" points="202.79,221.33 206.82,225.38 207.25,225.43 207.25,211.27 206.82,211.22 202.79,207.17 	"/>
	<path class="st0" d="M300.23,212.1c-0.34,0-0.71-0.08-1.1-0.23c-0.25,0.11-0.57,0.22-0.95,0.22c-0.48,0-1.1,0-1.6-0.31
		c-0.63,0.08-1.61,0.12-2.15-0.04c-0.38-0.09-0.74-0.41-1.26-0.89c-0.07-0.06-0.13-0.12-0.17-0.16c-1.34-0.67-0.96-2.21-0.84-2.73
		c0.03-0.11,0.06-0.58,0.08-0.87l0.01-0.13c0.04-0.56,0.07-0.81,0.09-0.94c0.01-0.58,0.07-3.52,0.08-3.72
		c0-0.09-0.06-1.45-0.11-2.65l-0.01-0.16c-0.06-1.4-0.18-2.97-0.23-3.22c-0.31-1.25-0.89-3.57-1.02-6.05
		c-0.1-1.92,0.11-3.49,0.29-4.87c0.12-0.93,0.23-1.74,0.23-2.51c-0.01-1.13-0.29-2.56-0.54-3.81c-0.18-0.88-0.33-1.64-0.37-2.22
		c-0.1-1.39,0.01-4.33,0.09-5.59c0.06-0.84,0.19-1.89,0.35-3.08c0.14-1.08,0.3-2.3,0.31-2.86c0.01-2.26-0.6-3.71-1.99-4.68
		c-0.87-0.61-2.16-1.32-3.4-2.01c-2.01-1.11-3.88-2.14-4.8-3.14c-0.59-0.65-1.47-2.48-1.47-2.5c-0.32-0.59-4.1-6.24-4.63-6.88
		c-0.55-0.66-2.06-2.25-2.07-2.27c-0.57-0.69-0.93-1.88-1.04-2.77c-0.1-0.81-0.04-1.33,0.04-1.88l0.04-0.28
		c0.11-0.9,0.69-1.68,1.61-2.14c0.37-0.19,0.38-0.21,0.62-0.72l0.07-0.15c0.56-1.17,2.01-1.33,2.63-1.39
		c0.56-0.06,0.95,0.07,1.22,0.17c0.25,0.09,0.41,0.14,0.77,0.09c1.4-0.21,2.61,0.89,3,1.24c0.42,0.38,0.85,0.96,1.16,1.39
		c0.16,0.21,1.54,2.87,1.63,3.13c0.17,0.3,2.14,2.93,3.09,4.15c0.1,0.13,0.2,0.16,0.27,0.17c0.25,0.03,0.54-0.14,0.67-0.26
		c0.21-0.19,1-1.46,0.91-2.57c-0.07-0.9-0.54-1.86-1.03-2.88l-0.24-0.49c-0.52-1.08-0.38-3.22-0.16-4.85
		c-0.04-0.11-0.18-0.53-0.67-1.5c-0.68-1.37-0.41-3.18,0.6-4.05c0.91-0.78,2.63-0.49,4.04-0.13c0.74-0.31,2.03-0.75,2.05-0.75
		c1.04-0.31,2.04-0.41,3.59-0.55c1.47-0.13,2.83,0.4,3.56,0.75c0.41-0.13,1.22-0.41,1.61-0.55l0.54-0.19
		c1.18-0.39,1.96,0.04,2.32,0.33c1.13,0.92,0.92,2.59,0.8,3.59c-0.17,1.46,0.17,2.9,0.28,3.16c0.92,2.2,1.81,3.71,2.88,4.9
		c0.94,1.04,2.95,2.63,3.81,3.31l0.07,0.07c0.4,0.41,3.97,4.02,4.36,4.49c0.78,0.94,1.92,2.08,3.03,3.18
		c1.17,1.16,2.25,2.23,3.01,3.16c1.99,2.41,3.16,4.42,3.8,6.53c0.47,1.55,0.73,3.01,0.92,4.08c0.1,0.58,0.48,3.68,0.48,3.93
		c0,0.18,0.01,0.35,0.02,0.51c0.05,0.66,0.11,1.56-0.77,2.19c-0.45,0.32-0.93,0.28-1.25,0.23c-0.14,0.41-0.35,1.01-1,1.37
		c-0.47,0.26-0.92,0.19-1.22,0.14c-0.07-0.01-0.18-0.03-0.22-0.02c-0.72,0.81-1.96,0.71-2.57,0.51c-1.16-0.37-1.56-1.24-2.11-2.46
		l-0.22-0.48c-0.22-0.47-0.47-0.99-0.73-1.5c0.58,2.98,1.49,7,1.66,7.52c0.12,0.36,0.62,1.28,1.02,2.02
		c0.54,0.99,1.08,1.99,1.44,2.85c0.82,1.95,1.88,6.5,1.93,6.69c0.19,0.9,0.43,2.07,0.51,3.29c0.04,0.6-0.09,1.71-0.38,3.4
		l-0.01,0.09c-0.06,0.61-0.22,2.38-0.23,2.73c-0.02,0.51-0.26,4.92-0.26,4.92c-0.05,0.8-0.02,1-0.02,1.04l0.24,0.84
		c0.29,1.01,0.74,2.55,0.8,2.79c0.27,1.03-0.23,1.88-1.5,2.52c-0.44,0.32-1.14,0.45-1.82,0.55c-0.05,0.01-0.09,0.01-0.12,0.02
		c-0.86,0.41-1.97,0.11-2.51-0.04c-0.02-0.01-0.05-0.01-0.07-0.02c-0.16,0.02-0.38,0.04-0.73,0.06c-0.23,0.01-0.61,0.03-0.72,0.06
		c-0.96,0.22-1.9,0.05-2.57-0.46c-0.48-0.36-1.05-1.07-1.05-2.41c-0.01-0.18-0.28-1.37-0.66-2.35c-0.25-0.65-0.65-2.35-1.03-4
		c-0.17-0.73-0.37-1.58-0.51-2.13c-1.35,0.18-5.59,0.82-6.86,1.07c-0.05,0.18-0.1,0.41-0.15,0.6c-0.17,0.71-0.35,1.43-0.54,1.86
		c-0.53,1.17-0.89,2.14-1.2,2.99c-0.29,0.77-0.56,1.5-0.88,2.19c-0.07,0.15-0.29,0.81-0.21,3.11l0,0.13c0,1.11-0.76,1.82-2.25,2.1
		C300.51,212.09,300.38,212.1,300.23,212.1"/>
	<path class="st1" d="M299.07,210.1l0.38,0.18c0.48,0.24,0.75,0.25,0.9,0.22c0.89-0.17,0.97-0.37,0.97-0.55l0-0.08
		c-0.06-1.93,0.05-3.18,0.36-3.83c0.3-0.63,0.54-1.29,0.83-2.06c0.33-0.88,0.7-1.87,1.25-3.1c0.13-0.29,0.31-1.04,0.45-1.59
		c0.24-0.99,0.31-1.26,0.56-1.48c0.53-0.42,8.15-1.43,8.22-1.43c0.08-0.01,0.19-0.02,0.28-0.02l0.51-0.02l0.23,0.46
		c0.15,0.29,0.33,1.04,0.77,2.98c0.33,1.44,0.75,3.24,0.96,3.78c0.43,1.1,0.76,2.5,0.77,2.91c0,0.85,0.32,1.09,0.42,1.16
		c0.3,0.23,0.78,0.3,1.27,0.18c0.2-0.05,0.51-0.07,0.99-0.1c0.25-0.01,0.49-0.02,0.61-0.05c0.19-0.08,0.4-0.02,0.69,0.06
		c0.75,0.21,1.23,0.25,1.42,0.14c0.15-0.09,0.28-0.11,0.57-0.16c0.63-0.1,1.01-0.19,1.14-0.27l0.15-0.1
		c0.76-0.37,0.79-0.56,0.74-0.74c-0.06-0.24-0.5-1.76-0.79-2.76l-0.25-0.87c-0.06-0.21-0.1-0.54-0.03-1.54c0,0,0.24-4.38,0.26-4.88
		c0.02-0.45,0.22-2.61,0.24-2.85c0-0.03,0.01-0.08,0.03-0.17c0.35-2.03,0.38-2.77,0.36-3.03c-0.07-1.1-0.3-2.22-0.47-3.03
		c-0.01-0.05-1.08-4.61-1.85-6.44c-0.33-0.78-0.85-1.75-1.36-2.69c-0.51-0.94-0.98-1.8-1.14-2.3c-0.03-0.1-1.75-7.03-1.93-12.08
		c-0.03-0.74,1.51-0.32,3.93,4.9l0.22,0.49c0.51,1.12,0.68,1.46,1.15,1.61c0.29,0.09,0.81,0.1,0.98-0.09
		c0.56-0.61,1.22-0.51,1.58-0.46c0.08,0.01,0.21,0.03,0.24,0.02c0.1-0.06,0.15-0.2,0.26-0.5c0.06-0.17,0.11-0.34,0.19-0.49
		c0.36-0.75,1.15-0.61,1.45-0.56c0.09,0.01,0.22,0.04,0.26,0.03c0.06-0.06,0.1-0.11,0.05-0.76c-0.01-0.2-0.03-0.41-0.03-0.63
		c-0.01-0.2-0.35-3.06-0.45-3.64c-0.19-1.05-0.44-2.45-0.88-3.91c-0.57-1.9-1.65-3.74-3.5-5.98c-0.71-0.87-1.76-1.91-2.87-3.01
		c-1.17-1.16-2.34-2.33-3.17-3.33c-0.25-0.31-2.71-2.82-4.23-4.35c-0.91-0.72-2.96-2.34-3.97-3.47c-1.19-1.33-2.17-2.98-3.16-5.35
		c-0.23-0.56-0.59-2.29-0.39-3.96c0.08-0.68,0.22-1.81-0.23-2.18c-0.19-0.15-0.47-0.17-0.82-0.05l-0.52,0.18
		c-1.4,0.49-1.87,0.64-2.07,0.68l-0.27,0.05l-0.24-0.13c-0.36-0.2-1.64-0.83-2.96-0.72c-1.44,0.13-2.37,0.22-3.26,0.48
		c-0.18,0.06-1.59,0.55-2.1,0.78l-0.1,0.04c-0.22,0.07-0.38,0.03-0.65-0.04c-2.19-0.55-2.64-0.25-2.68-0.21
		c-0.42,0.36-0.6,1.37-0.21,2.14c0.81,1.61,0.83,1.98,0.84,2.12l0,0.05l-0.02,0.18c-0.3,2.3-0.18,3.6,0.02,4.01l0.23,0.48
		c0.56,1.16,1.09,2.25,1.19,3.44c0.13,1.61-0.84,3.35-1.42,3.87c-0.38,0.34-1.1,0.72-1.87,0.65c-0.55-0.05-1.02-0.31-1.38-0.77
		c-0.03-0.04-3.15-4.06-3.34-4.6c-0.1-0.22-1.29-2.51-1.44-2.74c-0.24-0.32-0.62-0.85-0.92-1.12c-0.26-0.24-1.06-0.96-1.72-0.86
		c-0.75,0.11-1.2-0.05-1.52-0.16c-0.21-0.07-0.32-0.11-0.53-0.09c-0.3,0.03-1.2,0.13-1.38,0.51l-0.07,0.15
		c-0.31,0.65-0.52,1.04-1.33,1.45c-0.26,0.13-0.7,0.43-0.76,0.93l-0.04,0.3c-0.07,0.5-0.11,0.86-0.03,1.47
		c0.1,0.75,0.38,1.59,0.66,1.92c0.03,0.03,1.52,1.61,2.1,2.3c0.61,0.73,4.43,6.46,4.82,7.17c0.39,0.81,0.97,1.87,1.23,2.15
		c0.74,0.81,2.58,1.82,4.36,2.8c1.31,0.73,2.64,1.45,3.58,2.12c1.8,1.27,2.67,3.23,2.66,5.98c0,0.66-0.16,1.82-0.32,3.06
		c-0.16,1.17-0.29,2.19-0.34,2.98c-0.08,1.22-0.19,4.05-0.09,5.37c0.03,0.48,0.18,1.23,0.34,2.02c0.26,1.33,0.56,2.83,0.57,4.11
		c0.01,0.88-0.11,1.77-0.24,2.73c-0.17,1.32-0.37,2.81-0.28,4.58c0.12,2.33,0.67,4.56,0.97,5.76c0.12,0.47,0.24,2.53,0.28,3.54
		l0.01,0.16c0.06,1.61,0.1,2.6,0.1,2.78c-0.01,0.24-0.08,3.5-0.08,3.73l-0.04,0.24c0,0.05-0.03,0.38-0.06,0.74l-0.01,0.13
		c-0.04,0.55-0.07,0.89-0.12,1.11c-0.19,0.8-0.1,0.91,0.03,0.97c0.16,0.07,0.26,0.16,0.51,0.4c0.14,0.13,0.46,0.43,0.61,0.52
		l0.11,0.04c0.33,0.05,1.28,0,1.57-0.05l0.51-0.24l0.38,0.5c0.09,0.05,0.51,0.05,0.74,0.05c0.18,0,0.36-0.1,0.53-0.2L299.07,210.1z"
		/>
	<path class="st0" d="M304.46,129.8c-0.18,0.96-0.55,2.53-0.83,1.87c-0.28-0.66,0.09-1.63-0.32-1.35c-0.41,0.28-1.38,0.59-0.78-0.27
		C303.13,129.2,304.65,128.84,304.46,129.8"/>
	<path class="st0" d="M298.06,131.48c0.23-0.13,0.6-0.45,1.19-0.17c0.6,0.28,0.89,0.79,0.68,1.13c-0.21,0.34-0.59,0.43-0.9,0.26
		c-0.31-0.17-0.82-0.66-0.97-0.85C297.91,131.64,298.06,131.48,298.06,131.48"/>
	<path class="st0" d="M294.05,132.17c0.12-0.22-0.12-0.48-0.31-0.59c-0.19-0.11-0.64-0.13-0.92,0.13c-0.27,0.26-0.31,0.7-0.31,0.92
		c0,0.22,0.21,0.46,0.41,0.61c0.19,0.15,0.49-0.15,0.57-0.3C293.56,132.8,294.05,132.17,294.05,132.17"/>
	<path class="st0" d="M289.79,130.06c-0.2,0.37-0.15,0.64,0,1.16c0.15,0.53,0.78,1.78,1.09,1.52c0.31-0.26-0.24-0.97,0.15-1.03
		c0.39-0.06,1.04-0.02,1.04-0.45C292.07,130.83,290,129.68,289.79,130.06"/>
	<path class="st0" d="M294.47,133.18c-0.56,0.32-0.94,0.94-0.78,1.62c0.16,0.68,0.59,0.97,0.95,1.23c0.23,0.17,0.17,0.78-0.12,0.88
		c-0.29,0.11-1.47,0.26-0.88,0.62c0.58,0.35,1.55,0.39,2.33,0.41c0.78,0.01,1.55-0.11,1.97-0.18c0.42-0.07,0.56-0.49-0.18-0.56
		c-0.74-0.07-1.22-0.03-1.5-0.23c-0.28-0.19-0.4-0.81,0.16-1.04c0.56-0.23,1.05-0.76,1.04-1.29c-0.01-0.53-0.28-0.8-0.67-1.22
		C296.4,133.01,294.85,132.92,294.47,133.18"/>
	<path class="st0" d="M279.2,137.57c-0.36,0.27-0.55,0-0.83-0.3c-0.27-0.3-0.3-0.48-0.15-0.51
		C278.37,136.73,279.56,137.3,279.2,137.57"/>
	<path class="st0" d="M277.02,137.12c0.22,0,0.4,0.09,0.43,0.42c0.03,0.33-0.22,0.67-0.43,0.59c-0.21-0.08-0.51-0.18-0.52-0.5
		C276.48,137.31,277.02,137.12,277.02,137.12"/>
	<path class="st0" d="M275.53,138c0.17-0.03,0.56,0.09,0.59,0.39c0.03,0.3-0.24,0.63-0.51,0.59c-0.27-0.04-0.53-0.28-0.47-0.56
		C275.2,138.14,275.53,138,275.53,138"/>
	<path class="st0" d="M274.75,139.86c-0.09,0.4-0.18,0.88-0.39,0.79c-0.21-0.09-0.33-0.46-0.24-0.72
		C274.2,139.67,274.84,139.46,274.75,139.86"/>
	<path class="st0" d="M280.05,140.38c0.38,0,0.94-0.01,1.16-0.23c0.23-0.22,0.09-0.78-0.48-0.98c-0.57-0.19-1.66-0.24-2.26-0.09
		c-0.6,0.15-1.1,0.48-1.49,0.66s-0.85,0.86-1.05,1.16c-0.2,0.3-0.66,0.94-0.62,1.48c0.05,0.54,0.56,0.98,1.19,0.77
		c0.63-0.21,0.85-0.75,1.12-1.31c0.27-0.56,0.82-0.98,1.27-1.18S280.05,140.38,280.05,140.38"/>
	<path class="st0" d="M251.03,207.19c-0.47,0-0.99-0.07-1.54-0.39c-0.71-0.41-0.65-1.17-0.62-1.49c0-0.01,0-0.02,0-0.04
		c-0.3-0.24-0.49-0.56-0.52-0.93c-0.04-0.45,0.13-0.87,0.34-1.2c-1.1-0.03-5.39-0.32-6.3-0.57c-1.13-0.31-1.4-1.26-1.56-1.83
		c-0.03-0.11-0.06-0.21-0.1-0.31c-0.28-0.75,0.13-1.19,0.3-1.38c0.1-0.11,0.11-0.11,0.11-0.23c0.1-1.65,3.05-1.98,3.08-1.99
		c0.21-0.04,0.96-0.42,1.32-0.65c0.01-0.06,0.01-0.12,0-0.18c-0.02-0.38-0.18-1.49-0.42-2.81c-0.07-0.39-0.42-1.5-1.96-4.54
		l-0.1-0.19c-0.63-1.3-1.4-2.93-1.08-4.32c0.04-0.16,0.05-0.37,0.04-0.56c-0.72-0.47-2.01-1.27-2.71-1.52
		c-1.53-0.54-2.58-1.72-3.43-2.67c-0.52-0.58-1-1.12-1.44-1.37c-1.26-0.72-2.5-1.94-2.71-3.19c-0.66-0.47-1.49-1.16-1.93-2.03
		c-0.41-0.83-0.48-1.5-0.51-1.91c-0.2-1.81-0.1-2.39,0.02-2.69c0.27-0.71,0.82-1.21,1.47-1.36c0.22-0.05,0.52-0.07,0.9-0.1
		c0.51-0.04,1.72-0.12,2.02-0.36c0.8-0.63,1.77-1.3,3.16-1.09c0.23,0.03,0.49,0.09,0.74,0.14c0.25,0.05,0.65,0.13,0.86,0.14
		c0.49-0.52,1.33-1.39,2.27-1.26c0.74,0.11,0.96,0.93,1.16,1.65c0.03,0.12,0.06,0.23,0.09,0.32c0.92,0.49,4.85,2.05,6.3,2.05h0.02
		c0.1-0.04,0.26-0.12,0.44-0.21c0.93-0.44,1.76-0.81,2.4-0.78c0.6,0.02,1.56,0.28,2.76,0.61c0.45,0.12,1,0.28,1.14,0.29
		c1.15,0.1,4.73-1.17,6.45-1.77l1.22-0.43c1.67-0.58,3.75-1.31,5.19-1.62c1.72-0.36,4.28-0.46,5.5-0.32c1.67,0.19,3.68,0.93,5,1.85
		c0.92,0.64,6.38,4.26,6.44,4.29c1.27,0.82,2.07,2.24,2.2,3.22l0.26,1.83c0.34,2.42,0.61,4.31,0.64,4.73c0.08,1.2,0.13,2.4,0,3.04
		c-0.36,1.84-0.94,4.18-1.49,6.45c-0.39,1.6-0.76,3.11-1,4.24c-0.27,1.27-0.2,2.69-0.14,3.73c0.02,0.38,0.04,0.71,0.04,0.97
		c0,0.95-0.16,2.65-0.59,3.43c-0.48,0.88-1.44,1.27-2.32,1.55c-0.95,0.3-2.65,0.68-3.79,0.85l-0.43,0.07
		c-1.52,0.25-3.59,0.59-4.14-0.79c-0.06-0.08-0.37-0.21-0.51-0.21c-0.47,0.06-0.9-0.05-1.24-0.32c-0.24-0.19-0.41-0.46-0.53-0.8
		c-0.94,0.19-2.43,0.44-3.07,0.44c-0.15-0.01-0.3,0-0.44,0c-0.7,0.03-1.67,0.05-2.29-0.85c-0.09-0.13-0.39-0.23-0.65-0.32
		c-0.42-0.14-0.94-0.31-1.24-0.8c-0.55-0.87-0.25-2.37,1.05-3.22c0.87-0.56,2.02-1.39,2.14-1.49c0.16-0.14,0.33-0.28,0.5-0.76
		c0.13-0.36,0.39-2.52,0.52-3.81c-0.6-0.22-1.05-0.22-1.74-0.05c-0.67,0.17-1.19,0.12-1.6,0.08c-0.37-0.04-0.57-0.05-0.81,0.03
		c-1.51,0.52-2.43,0.13-3.18-0.19l-0.19-0.08c-0.11-0.05-0.22-0.1-0.32-0.15c0.03,0.44,0.25,0.97,0.44,1.47
		c0.21,0.53,0.4,1.03,0.44,1.5c0.03,0.42,0.09,1.49,0.14,2.87c0.04,1.03-0.56,2.1-1.04,2.96c-0.15,0.26-0.35,0.62-0.38,0.74
		c-0.04,0.16,0.01,0.49,0.05,0.76c0.07,0.46,0.15,0.94-0.01,1.4l-0.08,0.26c-0.62,1.92-1.23,3.24-2.23,3.49
		c-0.77,0.19-5.87,0.63-6.09,0.64l-0.19,0.01C251.41,207.18,251.22,207.19,251.03,207.19"/>
	<path class="st1" d="M250.43,205.52c0.29,0.12,0.59,0.11,1.04,0.08l0.2-0.01c0.4-0.02,5.25-0.47,5.81-0.6
		c0.09-0.06,0.46-0.45,1.1-2.44c0.04-0.12,0.07-0.23,0.1-0.3c0.03-0.1-0.02-0.42-0.06-0.64c-0.07-0.43-0.14-0.92-0.02-1.39
		c0.08-0.31,0.28-0.67,0.53-1.11c0.36-0.65,0.86-1.55,0.84-2.13c-0.06-1.56-0.12-2.51-0.14-2.8c-0.02-0.25-0.18-0.66-0.34-1.06
		c-0.39-1.01-0.93-2.39-0.15-3.52c0.36-0.52,0.92-0.54,1.65-0.07c0.15,0.09,0.29,0.19,0.45,0.25l0.21,0.09
		c0.64,0.28,1.11,0.47,2.04,0.15c0.58-0.2,1.06-0.15,1.48-0.11c0.36,0.03,0.66,0.06,1.06-0.04c1.22-0.31,2.09-0.21,3.3,0.37
		l0.49,0.24l-0.05,0.54c0,0.04-0.38,4.02-0.67,4.79c-0.31,0.86-0.72,1.21-0.96,1.42c-0.15,0.13-1.42,1.03-2.3,1.61
		c-0.59,0.38-0.64,0.94-0.58,1.06c0.03,0.01,0.26,0.09,0.41,0.14c0.45,0.15,1.06,0.35,1.45,0.92c0.11,0.17,0.31,0.19,0.94,0.17
		c0.17,0,0.35-0.01,0.53-0.01c0.66,0.04,3.09-0.48,3.46-0.56c0,0,1.82-0.85,2.39-1.46c0.57-0.61,0.46-2.47,1.52-3.11
		c0.44-0.27,0.46,2.7-0.19,3.42c-0.65,0.72-2.74,1.86-2.74,1.86c0.03,0.36,0.09,0.51,0.12,0.56c0.01,0,0.04,0,0.08-0.01
		c0.57-0.07,1.76,0.27,2.13,1.19c0.29,0.18,1.84-0.08,2.43-0.18l0.46-0.07c1.17-0.18,2.78-0.55,3.55-0.79
		c0.8-0.25,1.24-0.5,1.41-0.8c0.2-0.37,0.39-1.65,0.39-2.68c0-0.24-0.02-0.54-0.03-0.88c-0.06-1.13-0.14-2.67,0.18-4.14
		c0.25-1.15,0.62-2.67,1.01-4.28c0.55-2.25,1.12-4.58,1.48-6.38c0.1-0.53,0.01-2.06-0.03-2.63c-0.02-0.4-0.37-2.83-0.62-4.61
		l-0.26-1.84c-0.07-0.51-0.6-1.53-1.5-2.11c-0.23-0.16-5.54-3.67-6.48-4.32c-0.91-0.63-2.63-1.39-4.29-1.58
		c-0.95-0.11-3.37-0.05-4.99,0.3c-1.33,0.28-3.36,0.99-4.99,1.56l-1.22,0.43c-2.83,0.99-5.72,1.96-7.09,1.85
		c-0.25-0.02-0.67-0.13-1.44-0.35c-0.77-0.21-1.94-0.54-2.4-0.55h-0.01c-0.33,0-1.26,0.44-1.66,0.63c-0.49,0.23-0.71,0.34-0.95,0.35
		c-1.71,0.1-7.23-1.96-7.73-2.59c-0.18-0.22-0.26-0.52-0.37-0.93c-0.03-0.09-0.06-0.23-0.1-0.35c-0.16,0.12-0.39,0.33-0.72,0.69
		l-0.08,0.09c-0.48,0.51-1.27,0.35-2.18,0.17c-0.23-0.05-0.45-0.09-0.66-0.12c-0.78-0.11-1.32,0.26-1.95,0.76
		c-0.63,0.5-1.68,0.61-2.89,0.7c-0.25,0.02-0.56,0.04-0.66,0.06l-0.01,0c-0.07,0.02-0.24,0.12-0.35,0.39c0,0.01-0.11,0.37,0.07,1.9
		l0.01,0.08c0.03,0.35,0.07,0.79,0.35,1.35c0.35,0.71,1.29,1.36,1.6,1.57c0.19,0.13,0.44,0.31,0.46,0.69l0,0.05l0,0.05
		c-0.03,0.45,0.63,1.46,1.94,2.2c0.67,0.38,1.23,1.01,1.84,1.69c0.8,0.9,1.63,1.83,2.78,2.23c1.16,0.41,3.17,1.76,3.39,1.91
		l0.29,0.2l0.04,0.35c0,0.03,0.1,0.8-0.05,1.45c-0.2,0.86,0.47,2.26,0.96,3.28l0.08,0.16c1.26,2.48,1.95,4.11,2.11,4.97
		c0.23,1.25,0.41,2.48,0.44,2.99c0.02,0.37-0.05,0.86-0.17,1.09l-0.15,0.2c-0.34,0.34-1.85,1.15-2.44,1.21
		c-0.48,0.05-1.45,0.35-1.67,0.59c-0.05,0.54-0.28,0.86-0.45,1.05c0.03,0.09,0.05,0.18,0.08,0.27c0.16,0.56,0.23,0.68,0.47,0.74
		c0.74,0.2,5.45,0.54,6.02,0.52c0.65-0.04,1.29-0.35,1.59-0.78c0.06-0.14,1.11-3.01,1.3-3.45c0.19-0.43,0.47-1.18,0.67-0.73
		c0.15,0.34,0.2,0.82,0.22,1.37c0.02,0.55,0.02,3.69,0,3.81l-0.03,0.17l-0.1,0.14c-0.12,0.17-0.28,0.33-2.12,1.56l-0.24,0.16
		c-0.03,0.04-0.12,0.16-0.17,0.27c0.56,0.39,0.51,1.04,0.49,1.33C250.44,205.46,250.43,205.49,250.43,205.52"/>
	<path class="st0" d="M242.71,198.92L242.71,198.92L242.71,198.92z"/>
	<path class="st0" d="M231.56,171.08c-0.21-0.38,0.34-0.62,0.78-0.81c0.44-0.19,0.6-0.53,0.53-0.97c-0.07-0.44-0.4-0.57-0.64-0.51
		c-0.24,0.06-0.46,0.16-0.61-0.13c-0.1-0.19-0.48-0.21-0.73-0.2c-0.06,0.06-0.11,0.14-0.16,0.25c-0.18,0.39-0.3,1.07-0.26,1.69
		c0.05,0.62,0.23,0.94,0.28,1.27c0.07,0.08,1.23,0.86,1.77,1.13c0.54,0.27,2.41,0.53,3,0.48c0.6-0.05,0.27-0.31-0.19-0.34
		c-0.46-0.02-0.93-0.15-1.76-0.46C232.73,172.15,231.78,171.45,231.56,171.08"/>
	<path class="st0" d="M236.87,169c0.22-0.09,0.79-0.3,1.16,0c0.37,0.3,1.38,1.03,0.83,1.03c-0.55,0-1.37-0.37-1.74-0.59
		C236.75,169.22,236.64,169.08,236.87,169"/>
	<path class="st0" d="M243.37,170.31c0.22-0.26,1.74-0.95,1.63-0.22c-0.11,0.73-0.36,1.48-0.81,2.05c-0.45,0.57-1.22,1.13-1.06,0.46
		c0.17-0.68,0.9-1.12,0.53-1.54C243.29,170.64,243.15,170.57,243.37,170.31"/>
	<path class="st0" d="M250.27,120.14l-0.19-0.64c0,0-1-2.11-8.44-1.49c-10.26,0.85-15.91,1.31-17.27,1.4
		c-1.4,0.09-1.78-0.61-1.89-0.91c-0.24-0.71,0.2-1.54,1.15-2.18c0.8-0.53,1.79-1.35,2.33-1.81c-8.65-20.56-10.29-24.75-10.55-25.77
		c-1.21,0.39-2.27,0.67-2.99,0.65c-0.8-0.03-8.03-1.61-14.02-3c-13.43-3.12-13.45-3.49-13.5-4.15c-0.05-0.76,0.64-1.49,4.9-3.81
		c0.2-0.11,0.35-0.19,0.44-0.24c0.42-0.24,1.95-1.02,3.89-0.89c1.44,0.1,22.16,2.34,24.4,2.58c0.67-0.25,3.23-1.19,4.31-1.46
		c1.42-0.36,4.28,0.29,5.62,1.07c1.05,0.61,2.27,1.75,2.69,2.16c8.73,1.93,25.06,5.54,25.61,5.64c0.6,0.1,1.06,0.57,1.12,1.15
		c0.04,0.35-0.03,1.22-1.47,1.8c-1.73,0.69-4.24,1.64-5.97,1.84c-0.98,0.12-3.8,0.06-6.29,0.01c-0.61-0.01-1.26-0.03-1.83-0.03
		c2.59,2.16,8.22,6.67,9.52,7.61c1.28-0.59,6.45-3.51,10.55-6.66c3.93-3.01,7.97-6.51,9.43-7.93c-4.67-1.65-27.73-8.88-43.56-13.79
		c-0.89,0.44-4,1.98-7,3.65c-3.85,2.14-7.07,3.24-7.1,3.25c-0.14,0.05-0.52,0.12-0.88-0.26c-0.42-0.44-2.33-4.21-2-5.05
		c0.25-0.65,2.54-3.03,2.95-3.44c0.58-0.58,1.34-1.25,1.89-1.74c0.14-0.13,0.27-0.24,0.38-0.34c-0.15-0.32-0.39-0.77-0.52-1.02
		c-0.55-0.17-2.09-0.66-4.11-1.29c-5.98-1.88-17.12-5.37-26.76-8.48c-18.27-5.9-18.27-6.17-18.27-6.89c0-1.71,7.24-6.24,7.32-6.29
		c1.96-1.22,5.54-3.28,7.52-3.4c1.77-0.1,6.49,0.59,9.77,1.31c3.05,0.67,83.49,18,89.44,19.28c1.18-1,6.06-5.05,10.58-8.01
		c5.35-3.5,12.82-6.84,15.25-7.38c1.86-0.42,6.61-0.61,7.18,0.65c0.5,1.1-1.96,5.13-3.47,6.46c-0.9,0.79-1.56,1.42-1.97,1.82
		c1.03,1.2,2.09,3.43,0.89,5.94c-0.95,1.99-3.3,3.88-5.13,5.14c2.18-0.1,5.32-0.16,8.34,0.09c3.93,0.33,7.06,1.09,8.56,1.46
		c0.25,0.06,0.5,0.12,0.66,0.16c0.09-0.06,0.24-0.16,0.43-0.27c1.76-1.12,6.43-4.11,12.18-6.96c6.55-3.25,10.92-4.41,13.42-4.8
		c0.82-0.13,5.67-0.36,6.12,0.97c0.26,0.79-1.02,2.78-1.81,3.86c1.84-0.36,4.91-0.88,8.95-1.29c6.79-0.7,12.59-0.22,13.79,0.24
		c1.69,0.64,3.1,2.47,2.01,5.68c-1.04,3.07-5.63,8.38-8.28,11.28c-1.29,1.41-2.65,2.78-3.52,3.65c5.95,1.28,30.43,6.53,31.07,6.65
		c1.5,0.29,2.38,0.81,2.63,1.57c0.33,0.98-0.32,2.04-1.72,2.83c-0.89,0.5-8.42,4.12-8.95,4.22c-0.22,0.04-0.55,0.02-1.88-0.13
		c0.27,0.3,0.54,0.58,0.72,0.76c0.35-0.1,0.93-0.27,1.47-0.44c1.13-0.34,2.53-0.77,3.44-0.98c1.39-0.33,3.22-0.54,4.02,0.34
		c0.27,0.3,0.53,0.82,0.25,1.67c-0.65,1.95-3.01,5.08-7.52,7.48c-4.66,2.49-10.78,4.48-10.83,4.49c-0.43,0.12-0.72-0.17-0.85-0.3
		c-0.03-0.03-3.1-3.4-2.85-4.22c0.19-0.61,2.6-2.39,2.87-2.57c1.42-0.97,1.79-1.38,1.84-1.55c0.02-0.22-0.13-0.45-0.59-1
		c-0.44-0.53-3.03-3.87-3.74-4.79l-24.77-3.67c-0.89,0.35-5.06,2.03-10.23,4.26c-0.13,0.06-14.62,6.8-24.05,9.95
		c-10.98,3.66-27.03,7.46-27.2,7.5l0,0L250.27,120.14z"/>
	<path class="st1" d="M244.15,116.48c4.6,0,6.32,1.23,6.95,2.01l36.81-8.56c0.27-0.06,16.19-3.84,27.07-7.46
		c9.35-3.12,23.77-9.83,23.92-9.9c5.85-2.53,10.42-4.34,10.46-4.36l0.18-0.07l25.71,3.81l0.17,0.23c0.03,0.04,3.39,4.39,3.88,4.97
		c0.49,0.58,0.99,1.19,0.91,2.06c-0.07,0.8-0.92,1.52-2.45,2.57c-0.76,0.52-1.66,1.28-2.12,1.71c0.49,0.7,1.61,2.15,2.13,2.74
		c1.39-0.47,6.37-2.22,10.18-4.25c4.43-2.36,6.39-5.31,6.85-6.68c0.06-0.2,0.04-0.27,0.04-0.27c-0.09-0.12-0.9-0.33-2.65,0.08
		c-0.87,0.21-2.25,0.62-3.36,0.96c-1.96,0.59-2.04,0.62-2.33,0.52c-0.04-0.01-2.87-2.45-2.64-3.26c0.17-0.61,0.44-0.58,2.19-0.38
		c0.57,0.06,1.5,0.17,1.79,0.17c0.86-0.34,7.44-3.45,8.52-4.05c0.89-0.51,1.13-0.98,1.07-1.15c-0.05-0.12-0.5-0.43-1.56-0.63
		c-0.73-0.14-31.1-6.66-32.39-6.94l-1.31-0.28l0.96-0.92c0.02-0.02,2.3-2.21,4.41-4.5c2.07-2.26,6.99-7.84,7.98-10.77
		c0.93-2.76-0.51-3.65-1.18-3.9c-0.94-0.36-6.54-0.84-13.14-0.16c-6.6,0.68-10.69,1.67-10.73,1.68l-0.88,0.21v-0.9
		c0-0.27,0.08-0.47,0.94-1.38c0.58-0.62,1.57-2.23,1.9-2.99c-0.86-0.21-2.99-0.39-4.42-0.17c-2.41,0.38-6.62,1.5-13.01,4.67
		c-5.67,2.82-10.3,5.77-12.04,6.88c-0.62,0.4-0.64,0.38-0.74,0.42c-0.27,0.1-0.46,0.12-1.45-0.12c-1.46-0.36-4.51-1.11-8.34-1.42
		c-5.26-0.44-10.89,0.09-10.95,0.1l-0.4-1.33c0.06-0.03,5.55-3.02,6.98-6.02c1.3-2.72-1.05-4.77-1.07-4.79l-0.56-0.48l0.51-0.54
		c0.03-0.04,0.89-0.94,2.54-2.39c1.33-1.17,2.74-3.78,3.02-4.72c-0.85-0.24-3.43-0.4-5.49,0.06c-2.33,0.52-9.56,3.77-14.78,7.18
		c-5.09,3.33-10.65,8.08-10.7,8.13l-0.27,0.23l-0.34-0.07c-0.87-0.19-86.63-18.66-89.79-19.35c-3.13-0.68-7.76-1.38-9.38-1.28
		c-1.2,0.07-3.76,1.26-6.85,3.19c-2.33,1.45-5.45,3.78-6.4,4.83c2.92,1.28,17.62,6.07,43.79,14.27c4.44,1.39,4.44,1.39,4.55,1.47
		c0.15,0.11,1.39,2.02,1.14,2.63c-0.08,0.2-0.14,0.25-0.92,0.94c-0.54,0.48-1.28,1.13-1.83,1.69c-1.01,1.01-2.23,2.38-2.57,2.86
		c0.16,0.65,1,2.64,1.46,3.4c0.97-0.36,3.51-1.36,6.45-2.99c3.57-1.98,7.28-3.79,7.32-3.81l0.25-0.12l0.27,0.08
		c0,0,11.2,3.47,22.4,6.99c22.89,7.19,22.89,7.21,22.89,7.95c0,1.21-10.35,9.26-10.45,9.34c-3.84,2.94-10.8,7.12-11.6,7.02
		c-0.74-0.11-11.7-9.28-11.76-9.37l-0.18-0.26l0.07-0.32c0.16-0.62,0.16-0.62,4.39-0.53c2.32,0.05,5.21,0.11,6.09,0
		c1.74-0.21,4.65-1.37,5.61-1.75c0.28-0.11,0.44-0.22,0.51-0.29c-1.7-0.32-23.23-5.09-25.74-5.64l-0.2-0.04l-0.15-0.15
		c-0.01-0.01-1.45-1.44-2.55-2.08c-1.11-0.65-3.62-1.16-4.56-0.92c-1.14,0.29-4.28,1.46-4.31,1.47l-0.16,0.06l-0.17-0.02
		c-0.23-0.02-23.05-2.49-24.51-2.59c-1.55-0.1-2.76,0.51-3.09,0.71c-0.1,0.05-0.26,0.14-0.47,0.26c-2.18,1.19-3.25,1.87-3.76,2.27
		c4.03,1.35,24.08,5.94,25.75,6.03c0.68,0.01,2.28-0.5,3.23-0.82c1.17-0.39,1.41-0.47,1.74-0.3l0.35,0.17l0.06,0.42
		c0.04,0.46-0.28,0.71-0.69,1.02c-0.09,0.07-0.23,0.17-0.33,0.27c0.82,2.28,6.67,16.31,10.62,25.71l0.2,0.47l-0.38,0.34
		c-0.07,0.06-1.64,1.44-2.87,2.25c-0.29,0.2-0.45,0.37-0.52,0.49c0.09,0.01,0.21,0.02,0.39,0.01c1.35-0.08,6.99-0.54,17.24-1.4
		C242.49,116.52,243.36,116.48,244.15,116.48"/>
	<g>
		<defs>
			<path id="SVGID_1_" d="M181.77,41.39c-1.2,0.07-3.76,1.26-6.85,3.19c-2.33,1.45-5.46,3.78-6.4,4.83
				c2.92,1.28,17.62,6.07,43.79,14.27c4.44,1.39,4.44,1.39,4.55,1.47c0.15,0.11,1.39,2.02,1.14,2.63c-0.08,0.2-0.14,0.25-0.92,0.94
				c-0.54,0.48-1.28,1.13-1.83,1.69c-1.01,1.01-2.22,2.38-2.57,2.86c0.16,0.65,1,2.64,1.46,3.4c0.97-0.36,3.51-1.36,6.45-2.99
				c3.57-1.98,7.28-3.79,7.32-3.81l0.25-0.12l0.27,0.08c0,0,11.2,3.47,22.4,6.99c22.89,7.19,22.89,7.21,22.89,7.95
				c0,1.21-10.35,9.26-10.45,9.34c-3.84,2.94-10.8,7.12-11.6,7.02c-0.74-0.11-11.7-9.28-11.76-9.37l-0.18-0.26l0.07-0.32
				c0.16-0.62,0.16-0.62,4.39-0.53c2.32,0.05,5.21,0.11,6.09,0c1.74-0.21,4.65-1.37,5.61-1.75c0.28-0.11,0.44-0.22,0.51-0.29
				c-1.7-0.32-23.23-5.09-25.74-5.64l-0.2-0.04l-0.15-0.15c-0.01-0.01-1.45-1.44-2.55-2.08c-1.11-0.65-3.62-1.16-4.56-0.92
				c-1.14,0.29-4.28,1.46-4.31,1.47l-0.16,0.06l-0.17-0.02c-0.23-0.03-23.05-2.49-24.51-2.59c-1.55-0.1-2.76,0.51-3.09,0.71
				c-0.1,0.05-0.26,0.14-0.47,0.26c-2.18,1.19-3.25,1.87-3.76,2.27c4.03,1.34,24.08,5.94,25.76,6.03c0.68,0.01,2.28-0.5,3.23-0.82
				c1.17-0.39,1.41-0.47,1.74-0.3l0.35,0.18l0.06,0.42c0.04,0.46-0.28,0.71-0.69,1.02c-0.09,0.07-0.23,0.17-0.33,0.27
				c0.82,2.28,6.67,16.31,10.62,25.71l0.2,0.47l-0.38,0.34c-0.07,0.06-1.64,1.44-2.87,2.25c-0.29,0.2-0.45,0.37-0.52,0.49
				c0.09,0.01,0.21,0.02,0.39,0.01c1.35-0.08,6.99-0.54,17.24-1.4c0.96-0.08,1.83-0.12,2.62-0.12c4.6,0,6.32,1.23,6.95,2.01
				l36.82-8.56c0.27-0.06,16.19-3.84,27.07-7.46c9.35-3.12,23.77-9.83,23.92-9.9c5.85-2.53,10.42-4.34,10.46-4.36l0.18-0.07
				l25.71,3.81l0.17,0.23c0.03,0.04,3.39,4.39,3.88,4.97c0.49,0.58,0.99,1.19,0.91,2.06c-0.07,0.8-0.92,1.52-2.45,2.57
				c-0.76,0.52-1.66,1.28-2.12,1.71c0.49,0.71,1.62,2.15,2.13,2.74c1.39-0.47,6.37-2.22,10.18-4.25c4.43-2.36,6.39-5.31,6.85-6.68
				c0.07-0.19,0.04-0.27,0.04-0.27c-0.09-0.12-0.9-0.33-2.65,0.08c-0.87,0.2-2.25,0.62-3.36,0.96c-1.96,0.59-2.04,0.62-2.33,0.52
				c-0.04-0.01-2.87-2.45-2.64-3.26c0.17-0.61,0.44-0.58,2.19-0.38c0.57,0.06,1.5,0.17,1.79,0.17c0.86-0.34,7.44-3.45,8.52-4.05
				c0.89-0.51,1.13-0.98,1.07-1.15c-0.05-0.12-0.5-0.43-1.56-0.63c-0.73-0.14-31.1-6.66-32.39-6.94l-1.3-0.28l0.96-0.92
				c0.02-0.02,2.3-2.21,4.41-4.5c2.07-2.26,6.99-7.84,7.98-10.77c0.93-2.76-0.51-3.65-1.18-3.9c-0.94-0.36-6.54-0.84-13.14-0.16
				c-6.6,0.68-10.69,1.67-10.73,1.68l-0.87,0.21v-0.9c0-0.28,0.08-0.47,0.94-1.38c0.59-0.63,1.57-2.23,1.9-2.99
				c-0.86-0.22-2.99-0.39-4.42-0.17c-2.41,0.38-6.62,1.5-13.01,4.67c-5.68,2.82-10.3,5.77-12.05,6.88c-0.62,0.4-0.64,0.38-0.74,0.41
				c-0.27,0.1-0.46,0.12-1.45-0.12c-1.46-0.36-4.51-1.11-8.34-1.42c-5.26-0.44-10.89,0.09-10.95,0.1l-0.4-1.33
				c0.06-0.03,5.55-3.02,6.98-6.02c1.3-2.72-1.04-4.77-1.07-4.8l-0.56-0.48l0.51-0.54c0.04-0.04,0.89-0.94,2.54-2.39
				c1.33-1.17,2.74-3.77,3.02-4.72c-0.85-0.24-3.43-0.4-5.49,0.06c-2.33,0.52-9.56,3.77-14.78,7.18c-5.09,3.33-10.64,8.08-10.7,8.13
				l-0.27,0.23l-0.34-0.07c-0.87-0.19-86.63-18.66-89.79-19.35c-2.94-0.64-7.2-1.29-9.05-1.29
				C181.98,41.38,181.87,41.39,181.77,41.39"/>
		</defs>
		<clipPath id="SVGID_2_">
			<use xlink:href="#SVGID_1_"  style="overflow:visible;"/>
		</clipPath>
		<path class="st3" d="M363.64,79.64c0,0,2.29-2.2,4.44-4.54c2.1-2.3,7.08-7.93,8.13-11.02c0.58-1.71,0.35-2.86-0.15-3.63
			c-0.13,0.86-0.95,2.67-5.29,4.47c-5.99,2.49-18.16,6.58-32.42,11.77c-14.27,5.19-64,24-75.92,28.93
			c-11.92,4.93-29.51,12-30.51,12.47c2.8-0.23,6.13-0.5,9.66-0.8c8.38-0.7,9.18,2,9.18,2l37.31-8.68c0,0,12.77-2.79,27.13-7.48
			c14.37-4.69,33.52-12.87,41.9-18.46C360.77,82.24,363.64,79.64,363.64,79.64"/>
		<path class="st3" d="M221.18,74.56c4.71-2.42,7.03-4.04,7.03-4.04c3.69-2.89,5.19-5.44,5.49-7.33c0.3-1.9-2.79-1.05-5.04,0
			c-2.24,1.05-7.93,4.94-11.12,8.63c-2.51,2.9-3.82,5.61-3.6,5.67C214.17,77.55,217.53,76.43,221.18,74.56"/>
		<path class="st3" d="M395.47,95.51c0.12-0.35,0.1-0.62-0.01-0.82c-0.49,0.1-1.07,0.23-1.63,0.37c-1.35,0.35-5.54,2.3-9.58,5.59
			c-3.45,2.81-6.7,6.22-6.65,6.37c0.05,0.15,6.38-2.13,10.69-4.43C392.77,100.2,394.92,97.16,395.47,95.51"/>
		<path class="st3" d="M309,53.32c-0.6-0.02-1.82-0.12-2.39-0.47c-3.54,2.54-12.74,7.95-15.41,9c-3.19,1.25-4.59,1.5-4.59,1.5
			s1.42,1.65-1.08,3.24c-2.51,1.6-13.63,8.13-13.63,8.48c0,0.35,4.54,2.15,7.98,1.7c3.44-0.45,11.75-4.09,16.87-6.78
			c2.25-1.18,10.99-6.38,12.71-10.28c1.5-3.14-0.88-5.59-1.04-5.73"/>
	</g>
	<path class="st1" d="M288.07,110.62L288.07,110.62L288.07,110.62z"/>
	<path class="st1" d="M216.7,88.87"/>
	<path class="st1" d="M212.65,73.14"/>
	<path class="st1" d="M168.25,49.78"/>
	<path class="st1" d="M312.75,46.59L312.75,46.59L312.75,46.59z"/>
	<path class="st0" d="M320.95,67.7c-0.9-0.2-3.7-0.83-6.54-1.13s-6.05-0.04-7.98,0.55c-3.09,0.95-8.93,4.09-9.23,4.44
		c-0.3,0.35-0.45,2.29-0.5,4.34c-0.05,2.05-0.1,3.91,0.1,4.1c0.2,0.19,7.83-2.86,10.28-3.95c2.44-1.1,4.89-2.52,6.93-4.24
		c2.58-2.17,7.12-3.3,8.25-3.57C323.16,68.03,321.85,67.9,320.95,67.7"/>
	<path class="st0" d="M293.16,73.22c0,0-2.79,1.37-4.49,2.34c-1.92,1.1-3.67,2.59-3.67,2.59s-0.17,3.19-0.2,4.31
		c-0.02,1.12,0,3.02,0,3.02l7.28-3.02c0,0,0.12-2.57,0.32-4.76C292.61,75.5,293.16,73.22,293.16,73.22"/>
	<path class="st0" d="M282.21,79.89c0,0-0.57,2.67-0.72,4.04c-0.15,1.37-0.37,3.22-0.37,3.22s-3.87,1.67-5.34,2.12
		c-1.47,0.45-2.59-0.4-1.77-2.1c0.82-1.7,2.44-3.12,4.09-4.46C279.74,81.37,282.21,79.89,282.21,79.89"/>
	<path class="st1" d="M270.61,106.16c-7.13,3.24-14.32,7.23-17.81,8.73c-1.66,0.71-3.51,1.36-5.01,1.85
		c1.82,0.35,2.61,0.98,2.97,1.41c0.13,0.12,0.25,0.24,0.33,0.35l0.24-0.06c0.95-0.6,4.55-3.01,6.65-4.3
		c3.09-1.9,6.88-4.34,12.62-7.18c5.74-2.84,13.78-5.71,13.87-5.84C284.57,100.99,277.74,102.91,270.61,106.16"/>
	<path class="st0" d="M353.2,56.45c-0.07-0.11-0.14-0.22-0.92-0.04c-0.78,0.18-2.38,0.54-4.57,1.79c-2.2,1.25-2.82,2.05-2.82,2.05
		s0.52,0.33,0.72,0.73c0.2,0.4,0.59,1.52,0.59,1.52s2.07-0.49,4.29-1.01c0.02-0.05-0.03-0.93,0.58-1.59
		C351.69,59.23,352.89,57.34,353.2,56.45"/>
	<path class="st0" d="M313.25,46.49c-0.06-0.22-0.22-0.22-0.74-0.06c-0.52,0.16-2.83,0.83-4.81,1.96c-1.98,1.13-3.57,2.47-3.57,2.47
		s1.07,1.47,2.3,2.04c0.64,0.3,1.24,0.48,1.67,0.58c0.42-0.4,1.04-0.99,1.88-1.73C311.4,50.51,313.01,47.6,313.25,46.49"/>
	<path class="st0" d="M348.78,89.96l-1.13-1.04c1.65-0.75,6.65-3.29,9.61-5.32c2.98-2.05,6.47-4.89,6.51-4.91l0.88,1.08
		c-0.04,0.03-3.57,2.9-6.6,4.98C355.02,86.83,349.03,89.83,348.78,89.96"/>
	<path class="st0" d="M321.75,68.36l-0.94-1.25c0,0,8.41-2.06,13.99-3.39c5.65-1.35,12.39-2.89,12.46-2.9l0.31,1.36
		c-0.07,0.02-6.79,1.55-12.44,2.9C329.55,66.41,321.76,68.36,321.75,68.36"/>
</g>
</svg>
