<svg viewBox="0 0 40 59" fill="none" xmlns="http://www.w3.org/2000/svg"><path d="M13.7296 48.1993C14.1924 48.1993 14.5688 48.574 14.5688 49.0368C14.5688 49.1665 14.5381 49.2886 14.4858 49.3975L10.9718 58.3489C10.8696 58.6995 10.5481 58.9571 10.1667 58.9571C9.77697 58.9571 9.45125 58.6896 9.35819 58.3306L7.61327 53.1291L7.48697 52.6679L7.33907 53.1308L5.26677 58.3796C5.15792 58.7137 4.84467 58.9571 4.47159 58.9571C4.08189 58.9571 3.75783 58.6896 3.66311 58.3306L0.693425 49.4947C0.651049 49.3534 0.604518 49.1897 0.604518 49.0692C0.604518 48.623 0.955163 48.2574 1.39638 48.235V48.2317H3.37977C3.74038 48.2333 4.04533 48.4652 4.16 48.7884L4.16332 48.7967C4.1683 48.81 4.17329 48.8241 4.17661 48.8391L5.40221 52.7469L5.52436 53.2064L5.6814 52.7519L6.65191 50.309L6.391 49.4947C6.34696 49.3534 6.30126 49.1897 6.30126 49.0692C6.30126 48.623 6.65191 48.2574 7.09146 48.235V48.2317H9.07485C9.43546 48.2333 9.74207 48.4652 9.85674 48.7884L9.86006 48.7967C9.86505 48.81 9.86837 48.8241 9.87336 48.8391L11.0973 52.7435L11.2211 53.2064L11.374 52.7452L12.9511 48.7402C13.069 48.4245 13.3723 48.1993 13.7296 48.1993ZM28.495 48.1993C28.1377 48.1993 27.8344 48.4245 27.7147 48.7394L26.1377 52.7444L25.9848 53.2055L25.8635 52.7427L24.6379 48.8383C24.6329 48.8233 24.6295 48.8092 24.6246 48.7959L24.6212 48.7876C24.5057 48.4643 24.1991 48.2325 23.8377 48.2309H21.856V48.2342C21.4147 48.2566 21.0641 48.6222 21.0641 49.0684C21.0641 49.1889 21.1115 49.3526 21.1547 49.4938L21.4172 50.3081L20.4451 52.751L20.2872 53.2055L20.1659 52.746L18.9403 48.8383C18.9353 48.8233 18.932 48.8092 18.927 48.7959L18.9237 48.7876C18.8082 48.4643 18.5032 48.2325 18.1418 48.2309H16.16V48.2342C15.7188 48.2566 15.3682 48.6222 15.3682 49.0684C15.3682 49.1889 15.4139 49.3526 15.4571 49.4938L18.4268 58.3306C18.519 58.6896 18.8456 58.9571 19.2353 58.9571C19.6067 58.9571 19.9233 58.7137 20.0304 58.3796L22.1052 53.1316L22.2531 52.6688L22.3778 53.1299L24.1227 58.3314C24.2166 58.6904 24.5431 58.958 24.9328 58.958C25.3142 58.958 25.6374 58.6995 25.738 58.3497L29.2519 49.3983C29.3034 49.2894 29.3333 49.1681 29.3333 49.0377C29.3325 48.574 28.9578 48.1993 28.495 48.1993ZM38.0895 48.2142C38.0812 48.2142 31.1647 48.2159 31.1647 48.2159C30.7667 48.2159 30.4426 48.5391 30.4426 48.938C30.4426 48.938 30.4426 48.938 30.4426 48.9396L30.441 48.9413C30.441 48.9413 30.441 49.6584 30.441 50.692C30.441 53.1914 30.441 58.1362 30.441 58.1362C30.441 58.1445 30.441 58.1295 30.441 58.1362L30.4426 58.1378C30.4601 58.5516 30.8032 58.884 31.222 58.884C32.4601 58.884 33.1805 58.884 33.1805 58.884C33.6026 58.879 33.9399 58.5367 33.9466 58.1146C33.9466 58.1827 33.9466 53.8154 33.9466 53.8154C33.9466 53.8154 36.7609 53.8138 36.7684 53.8121C37.1805 53.8038 37.5145 53.4681 37.5145 53.0526C37.5145 52.6339 37.1738 52.2932 36.7551 52.2932C36.7468 52.2932 33.9474 52.2899 33.9474 52.2899L33.9457 49.8395C33.9457 49.8395 38.1119 49.8395 38.1211 49.8378C38.5557 49.8204 38.9021 49.4648 38.9021 49.026C38.903 48.579 38.539 48.2142 38.0895 48.2142ZM27.3475 18.9129C28.6113 20.3196 28.7417 24.5183 31.9092 22.8465C33.8095 21.8435 33.7854 17.6075 31.2536 16.0787C29.1954 14.8614 28.0712 16.4958 27.3259 18.5083C27.2702 18.6645 27.2652 18.8223 27.3475 18.9129ZM22.4268 18.2332C22.4983 18.1734 22.573 18.0479 22.573 17.969C22.5614 15.6873 21.3641 13.5336 18.9993 14.6196C15.6108 16.4243 15.7994 20.3155 17.7629 21.3184C20.2049 22.3354 21.1106 19.33 22.4268 18.2332ZM25.6939 25.9026C27.0035 25.7696 26.7118 24.559 25.7197 24.2598C24.8339 23.9923 23.4962 23.817 22.544 23.8377C20.8605 23.8751 20.9062 25.1605 21.7795 25.3782C22.4351 25.5976 22.8705 25.6832 23.4405 26.4269C23.9623 27.4314 23.7272 26.1203 25.6939 25.9026ZM31.871 4.2099C30.8614 5.88502 31.0741 6.86134 32.1435 7.30921C32.8415 7.60335 34.1252 8.60128 34.7285 9.43718C36.0961 11.3325 38.2 9.37901 39.016 7.76039C39.6225 6.55806 39.3716 4.85053 37.807 3.36735C36.3728 2.00383 33.5128 1.47703 31.871 4.2099ZM38.4061 16.2656C40.8049 24.1626 36.6578 38.5266 33.3508 40.7061C30.1294 42.8241 25.5793 43.4132 27.0184 37.5171C29.2012 27.2137 21.4746 29.7015 24.6619 40.2674C24.9229 41.488 27.325 43.6301 23.0018 44.1968C15.5236 44.7352 13.5144 38.9388 10.671 32.559C10.5265 32.1253 10.2739 32.2233 10.2739 32.4369C10.0819 36.0156 13.5875 38.8714 8.41926 38.8714C5.58252 38.6521 3.57503 38.0846 1.21524 30.8349C0.191554 27.3583 1.16622 26.8697 0.522257 24.22C-0.792248 18.7592 -0.0618746 10.6378 7.85922 6.45087C8.61369 6.01298 8.6918 6.25976 8.48573 6.43509C-0.660132 12.7592 2.51229 24.22 8.3827 27.9848C8.58212 28.1053 8.85798 28.1144 8.73833 27.7314C7.35901 23.3367 8.45582 23.7031 8.33284 19.3948C8.20156 15.3358 9.16209 10.6653 14.7965 6.86799C12.7857 4.42095 13.8808 2.34367 15.4471 1.05658C16.8331 -0.08426 19.8568 -1.02402 21.3449 2.28218C22.4899 4.82561 21.7704 5.39312 20.4409 5.89665C19.8809 6.10937 18.8539 6.73089 18.2465 7.28926C17.0749 8.36696 16.6711 8.26642 15.5801 7.60917C10.0346 14.5955 12.0371 23.2519 18.3312 24.8132C18.9735 24.9736 19.4837 25.3226 19.8161 26.2092C21.3449 29.2669 22.5656 26.4285 24.706 27.8677C27.674 29.1788 27.1888 26.5723 28.8149 26.5648C35.183 26.534 38.166 21.1946 38.0214 16.2124C38.0164 15.8086 38.2582 15.7804 38.4061 16.2656ZM25.8128 28.7584C25.8269 28.6628 25.733 28.6853 25.6973 28.6853C24.6312 28.6903 23.0599 28.5033 21.4056 28.1219C21.3649 28.112 21.2643 28.0895 21.2627 28.1693C21.3765 30.0039 25.0965 30.6479 25.8128 28.7584ZM7.84177 40.1793C7.07567 40.1793 6.45747 40.7975 6.45747 41.5619C6.45747 42.3264 7.07567 42.9462 7.84177 42.9462C8.60455 42.9462 9.22607 42.3264 9.22607 41.5619C9.22607 40.7975 8.60455 40.1793 7.84177 40.1793ZM9.49861 41.5619C9.49861 42.4759 8.75495 43.2171 7.84177 43.2171C6.92611 43.2171 6.18493 42.4751 6.18493 41.5619C6.18493 40.6463 6.92694 39.9051 7.84177 39.9051C8.75578 39.9051 9.49861 40.6463 9.49861 41.5619ZM8.55636 41.8145C8.48822 42.1718 8.21901 42.3937 7.88747 42.3937C7.40056 42.3937 7.0873 42.0289 7.0873 41.5578C7.0873 41.0792 7.3856 40.7269 7.87418 40.7269C8.21818 40.7269 8.50235 40.9246 8.5522 41.2919H8.31207C8.26803 41.0958 8.10268 40.9662 7.8775 40.9662C7.54015 40.9662 7.35984 41.2196 7.35984 41.5536C7.35984 41.8769 7.56092 42.156 7.88747 42.156C8.11431 42.156 8.28049 42.0181 8.3129 41.8154H8.55636V41.8145ZM36.9777 44.132C36.2116 44.132 35.5934 44.7502 35.5934 45.5146C35.5934 46.2807 36.2116 46.8989 36.9777 46.8989C37.7405 46.8989 38.362 46.2807 38.362 45.5146C38.362 44.751 37.7405 44.132 36.9777 44.132ZM38.6329 45.5154C38.6329 46.4303 37.8918 47.1706 36.9777 47.1706C36.0604 47.1706 35.3209 46.4303 35.3209 45.5154C35.3209 44.5981 36.0613 43.8602 36.9777 43.8602C37.8918 43.8594 38.6329 44.5981 38.6329 45.5154ZM36.6903 46.3006H36.4534V44.736H37.0492C37.419 44.736 37.6009 44.8723 37.6009 45.1806C37.6009 45.4614 37.4256 45.5827 37.1954 45.6126L37.6417 46.3006H37.3758L36.9636 45.6243H36.6911V46.3006H36.6903ZM36.9744 45.4224C37.1738 45.4224 37.3542 45.4082 37.3542 45.1656C37.3542 44.9745 37.1772 44.9371 37.0135 44.9371H36.6903V45.4224H36.9744Z" fill="black"></path></svg>
